# xmcd CD database file
#
# Track frame offsets:
#	150
#	13268
#	26424
#	41211
#	56317
#	69313
#	83190
#	95642
#	108854
#	122413
#	134997
#	144759
#	156518
#	167799
#	178630
#	189957
#	204003
#	216193
#	229339
#
# Disc length: 3226 seconds
#
# Revision: 0
# Processed by: cddbd v1.5.1PL0 Copyright (c) Steve Scherf et al.
# Submitted via: CDex 1.50
#
DISCID=060c9813
DTITLE=Stan Getz - The Jazz
DYEAR=2001
DGENRE=Jazz
TTITLE0=There's a small hotel
TTITLE1=Too marvelous for words
TTITLE2=I've got you under my skin
TTITLE3=Intoit
TTITLE4=You stepped out of a dream
TTITLE5=Wrap your troubles in dreams
TTITLE6=On the alamo
TTITLE7=Gone with the wind
TTITLE8=You go to my head
TTITLE9=Yesterdays
TTITLE10=Tootsie roll
TTITLE11=Hershey bar
TTITLE12=Strike up the band
TTITLE13=Imagination
TTITLE14=Sweety pie
TTITLE15=Wild wood
TTITLE16=Potters luck
TTITLE17=S'wonderful
TTITLE18=For stompers only
EXTD=YEAR: 2001
EXTT0=
EXTT1=
EXTT2=
EXTT3=
EXTT4=
EXTT5=
EXTT6=
EXTT7=
EXTT8=
EXTT9=
EXTT10=
EXTT11=
EXTT12=
EXTT13=
EXTT14=
EXTT15=
EXTT16=
EXTT17=
EXTT18=
PLAYORDER=
